HIERARCHY
ROOT hip
{
  OFFSET 0 0 0
  CHANNELS 6 Xposition Yposition Zposition Zrotation Yrotation Xrotation
  JOINT abdomen
  {
    OFFSET 0 20.6881 -0.73152
    CHANNELS 3 Zrotation Xrotation Yrotation
    JOINT chest
    {
      OFFSET 0 11.7043 -0.48768
      CHANNELS 3 Zrotation Xrotation Yrotation
      JOINT neck
      {
        OFFSET 0 22.1894 -2.19456
        CHANNELS 3 Zrotation Xrotation Yrotation
        JOINT head
        {
          OFFSET -0.24384 7.07133 1.2192
          CHANNELS 3 Zrotation Xrotation Yrotation
          JOINT leftEye
          {
            OFFSET 4.14528 8.04674 8.04672
            CHANNELS 3 Zrotation Xrotation Yrotation
            End Site
            {
              OFFSET 1 0 0
            }
          }
          JOINT rightEye
          {
            OFFSET -3.6576 8.04674 8.04672
            CHANNELS 3 Zrotation Xrotation Yrotation
            End Site
            {
              OFFSET 1 0 0
            }
          }
        }
      }
      JOINT rCollar
      {
        OFFSET -2.68224 19.2634 -4.8768
        CHANNELS 3 Zrotation Xrotation Yrotation
        JOINT rShldr
        {
          OFFSET -8.77824 -1.95073 1.46304
          CHANNELS 3 Zrotation Xrotation Yrotation
          JOINT rForeArm
          {
            OFFSET -28.1742 -1.7115 0.48768
            CHANNELS 3 Zrotation Xrotation Yrotation
            JOINT rHand
            {
              OFFSET -22.5879 0.773209 7.07136
              CHANNELS 3 Zrotation Xrotation Yrotation
              JOINT rThumb1
              {
                OFFSET -1.2192 -0.487915 3.41376
                CHANNELS 3 Zrotation Xrotation Yrotation
                JOINT rThumb2
                {
                  OFFSET -3.37035 -0.52449 3.41376
                  CHANNELS 3 Zrotation Xrotation Yrotation
                  End Site
                  {
                    OFFSET -1.78271 -1.18214 1.43049
                  }
                }
              }
              JOINT rIndex1
              {
                OFFSET -7.75947 0.938293 5.60832
                CHANNELS 3 Zrotation Xrotation Yrotation
                JOINT rIndex2
                {
                  OFFSET -2.54057 -0.884171 1.56538
                  CHANNELS 3 Zrotation Xrotation Yrotation
                  End Site
                  {
                    OFFSET -1.62519 -0.234802 1.16502
                  }
                }
              }
              JOINT rMid1
              {
                OFFSET -8.24714 1.18213 3.41376
                CHANNELS 3 Zrotation Xrotation Yrotation
                JOINT rMid2
                {
                  OFFSET -3.10165 -0.590103 1.0647
                  CHANNELS 3 Zrotation Xrotation Yrotation
                  End Site
                  {
                    OFFSET -2.48547 -0.328903 0.83742
                  }
                }
              }
              JOINT rRing1
              {
                OFFSET -8.82822 0.546677 1.51678
                CHANNELS 3 Zrotation Xrotation Yrotation
                JOINT rRing2
                {
                  OFFSET -2.60934 -0.819778 -0.0198488
                  CHANNELS 3 Zrotation Xrotation Yrotation
                  End Site
                  {
                    OFFSET -2.33842 -0.294052 0.168128
                  }
                }
              }
              JOINT rPinky1
              {
                OFFSET -8.27202 -0.0477905 -0.4584
                CHANNELS 3 Zrotation Xrotation Yrotation
                JOINT rPinky2
                {
                  OFFSET -1.82734 -0.647385 -0.700984
                  CHANNELS 3 Zrotation Xrotation Yrotation
                  End Site
                  {
                    OFFSET -1.69225 -0.51767 -0.607171
                  }
                }
              }
            }
          }
        }
      }
      JOINT lCollar
      {
        OFFSET 2.68224 19.2634 -4.8768
        CHANNELS 3 Zrotation Xrotation Yrotation
        JOINT lShldr
        {
          OFFSET 8.77824 -1.95073 1.46304
          CHANNELS 3 Zrotation Xrotation Yrotation
          JOINT lForeArm
          {
            OFFSET 28.1742 -1.7115 0.48768
            CHANNELS 3 Zrotation Xrotation Yrotation
            JOINT lHand
            {
              OFFSET 22.5879 0.773209 7.07136
              CHANNELS 3 Zrotation Xrotation Yrotation
              JOINT lThumb1
              {
                OFFSET 1.2192 -0.487915 3.41376
                CHANNELS 3 Zrotation Xrotation Yrotation
                JOINT lThumb2
                {
                  OFFSET 3.37035 -0.52449 3.41376
                  CHANNELS 3 Zrotation Xrotation Yrotation
                  End Site
                  {
                    OFFSET 1.78271 -1.18214 1.43049
                  }
                }
              }
              JOINT lIndex1
              {
                OFFSET 7.75947 0.938293 5.60832
                CHANNELS 3 Zrotation Xrotation Yrotation
                JOINT lIndex2
                {
                  OFFSET 2.54057 -0.884171 1.56538
                  CHANNELS 3 Zrotation Xrotation Yrotation
                  End Site
                  {
                    OFFSET 1.62519 -0.234802 1.16502
                  }
                }
              }
              JOINT lMid1
              {
                OFFSET 8.24714 1.18213 3.41376
                CHANNELS 3 Zrotation Xrotation Yrotation
                JOINT lMid2
                {
                  OFFSET 3.10165 -0.590103 1.0647
                  CHANNELS 3 Zrotation Xrotation Yrotation
                  End Site
                  {
                    OFFSET 2.48547 -0.328903 0.83742
                  }
                }
              }
              JOINT lRing1
              {
                OFFSET 8.82822 0.546677 1.51678
                CHANNELS 3 Zrotation Xrotation Yrotation
                JOINT lRing2
                {
                  OFFSET 2.60934 -0.819778 -0.0198488
                  CHANNELS 3 Zrotation Xrotation Yrotation
                  End Site
                  {
                    OFFSET 2.33842 -0.294052 0.168128
                  }
                }
              }
              JOINT lPinky1
              {
                OFFSET 8.27202 -0.0477905 -0.4584
                CHANNELS 3 Zrotation Xrotation Yrotation
                JOINT lPinky2
                {
                  OFFSET 1.82734 -0.647385 -0.700984
                  CHANNELS 3 Zrotation Xrotation Yrotation
                  End Site
                  {
                    OFFSET 1.69225 -0.51767 -0.607171
                  }
                }
              }
            }
          }
        }
      }
    }
  }
  JOINT rButtock
  {
    OFFSET -8.77824 4.35084 1.2192
    CHANNELS 3 Zrotation Xrotation Yrotation
    JOINT rThigh
    {
      OFFSET 0 -1.70687 -2.19456
      CHANNELS 3 Zrotation Xrotation Yrotation
      JOINT rShin
      {
        OFFSET 0 -36.8199 0.73152
        CHANNELS 3 Zrotation Xrotation Yrotation
        JOINT rFoot
        {
          OFFSET 0.73152 -45.1104 -5.12064
          CHANNELS 3 Zrotation Xrotation Yrotation
          End Site
          {
            OFFSET -1.1221 -3.69964 12.103
          }
        }
      }
    }
  }
  JOINT lButtock
  {
    OFFSET 8.77824 4.35084 1.2192
    CHANNELS 3 Zrotation Xrotation Yrotation
    JOINT lThigh
    {
      OFFSET 0 -1.70687 -2.19456
      CHANNELS 3 Zrotation Xrotation Yrotation
      JOINT lShin
      {
        OFFSET 0 -36.8199 0.73152
        CHANNELS 3 Zrotation Xrotation Yrotation
        JOINT lFoot
        {
          OFFSET -0.73152 -45.1104 -5.12064
          CHANNELS 3 Zrotation Xrotation Yrotation
          End Site
          {
            OFFSET 1.1221 -3.69964 12.103
          }
        }
      }
    }
  }
}
MOTION
Frames:	8
Frame Time:	0.00833333
1.7643100000000003 81.706 -25.308199999999996 -0.0 -0.0 -0.0 -0.0 -0.0 -0.0 0.0 0.0 -0.0 -7.839959 7.474454 -64.637578 10.095103 3.902534 64.805654 0.0 -0.0 -0.0 0.0 -0.0 -0.0 -143.620413 38.233348 148.080496 -153.748773 -14.787283 171.174154 177.371329 -25.231932 142.14444 174.373203 -5.401009 144.967919 71.831195 -48.263725 25.791675 -10.27518 -58.324179 -38.21001 -151.353117 -17.158427 121.133109 -147.415553 -8.556914 120.686727 -15.423151 32.961633 11.295888 -165.471208 -4.109079 145.06007 -0.021306 -1.72602 -0.542654 -166.444662 -14.82643 173.205332 -25.537984 -38.087442 -24.598474 -148.291845 12.37238 -145.344662 80.1661 68.371792 -83.260848 -16.926784 14.142456 0.162407 -165.699296 6.060187 -170.269519 74.834018 73.821528 -56.285077 -1.871658 -1.856197 0.257905 123.636029 -14.294334 -111.189845 -37.215945 -57.917763 0.643014 -165.599658 -43.009214 -92.56679 36.036059 51.723116 -29.832321 83.960555 66.935175 -74.590722 -0.004873 1.771387 -0.556475 165.922959 -1.812974 -172.337288 -32.017443 83.320556 -6.228541 137.508928 -13.596557 131.911803 -180.0 75.749642 -0.0 -180.0 75.749642 -0.0 2.512346 0.127625 22.075435 63.99217 -37.472777 -23.046809 -180.0 75.749642 -0.0 -180.0 75.749642 -0.0 5.634217 7.031168 86.353135 -10.937268 -58.836485 -110.224295
1.9004900000000002 81.4465 -25.1667 -0.0 -0.0 -0.0 -0.0 -0.0 -0.0 0.0 0.0 -0.0 -7.839959 7.474454 -64.637578 10.095103 3.902534 64.805654 0.0 0.0 0.0 0.0 0.0 0.0 -143.620413 38.233348 148.080496 -153.748773 -14.787283 171.174154 1.784815 25.167461 1.209184 -2.45536 7.856208 -0.10065 -78.030619 38.689342 42.41267 -141.076286 -28.192271 82.927208 129.2177 -75.529207 76.343847 124.095635 -59.580082 58.558059 -174.944533 -48.5656 144.390478 83.600614 -75.510882 53.144649 -145.118942 0.185466 -179.186604 22.147886 25.943658 -6.086773 -149.198149 25.859061 -145.26249 -159.840421 53.22076 -145.906155 80.1661 68.371792 -83.260848 -16.926784 14.142456 0.162407 -158.696598 43.419875 -174.650309 160.172369 53.912504 -135.074761 6.581133 6.344846 -1.36571 66.067186 25.011072 -62.084595 153.453439 -21.067684 -121.744506 172.61228 -51.368594 -112.02377 160.503109 -6.142549 -143.164789 18.659276 45.979519 -17.91665 145.099706 -1.521107 178.650165 144.412104 -6.283551 178.689299 125.807905 -27.87746 123.551547 -21.497778 58.024986 -9.888995 -180.0 75.749642 -0.0 -180.0 75.749642 -0.0 3.093813 0.300867 27.366401 118.102375 -53.84318 5.428081 -180.0 75.749642 -0.0 -180.0 75.749642 -0.0 2.74577 11.919568 137.880989 -102.092902 -27.500825 160.112613
2.06559 81.2011 -25.0026 -0.0 -0.0 -0.0 -0.0 -0.0 -0.0 0.0 0.0 -0.0 -7.839959 7.474454 -64.637578 10.095103 3.902534 64.805654 0.0 0.0 0.0 0.0 0.0 0.0 -143.620413 38.233348 148.080496 -155.393326 -26.092474 171.292274 175.725133 -19.899605 142.502351 176.30252 0.714692 145.256604 -5.433768 5.264911 1.077842 -139.737399 -44.345153 116.283368 37.215945 -57.917763 -0.643014 4.30807 9.450289 7.466282 -36.036059 51.723116 29.832321 1.598346 1.111375 -2.463468 -69.297282 72.946551 87.017042 5.471942 0.156403 -14.767934 -162.892514 73.156939 -150.763089 -26.768215 -39.311324 -28.730415 80.1661 68.371792 -83.260848 -16.89865 15.899113 0.048397 -128.364878 75.088419 156.505854 176.279223 23.541501 -144.457945 -83.25393 -50.258079 -33.616048 76.176798 37.701916 -38.44167 26.599783 30.073055 -19.414608 125.262889 45.758659 -91.36883 36.036059 51.723116 -29.832321 87.925938 66.79519 -78.433591 145.118942 0.185529 179.186624 45.330777 87.634708 -68.87754 -0.55107 1.455736 -0.507892 24.962766 -39.834164 23.222468 -180.0 75.749642 -0.0 -180.0 75.749642 -0.0 3.819913 0.604099 34.22701 157.779015 -53.280202 35.135222 -180.0 75.749642 -0.0 -180.0 75.749642 -0.0 2.029982 12.329736 145.110086 -118.648132 -15.421691 151.51158
2.2403 80.9748 -24.8463 -0.0 -0.0 -0.0 -0.0 -0.0 -0.0 0.0 0.0 -0.0 12.086107 9.490159 98.819281 -7.514184 13.392728 -98.942746 0.0 0.0 0.0 0.0 0.0 0.0 -80.1661 68.371792 83.260848 16.926686 14.149077 -0.16198 -64.748083 -83.097366 -70.855479 4.514972 -13.917859 1.031514 -178.927535 -16.453687 89.421826 37.912115 -70.304107 28.156569 19.56865 -35.040283 -5.986264 176.28373 -30.705683 100.971552 68.983989 -80.15399 40.578188 -86.025069 60.986081 77.509375 -75.673382 -72.116249 -92.828895 10.260297 22.086506 9.498495 -145.173549 12.06758 -141.82295 36.628463 74.115567 0.060999 80.1661 68.371792 -83.260848 -16.92521 14.247477 0.155641 -18.463671 71.752992 48.214559 -174.8857 -3.790614 -145.064183 92.20949 38.141713 -52.469369 5.758178 -15.578682 -27.31203 155.193415 -24.299992 -122.142835 -41.473042 -37.034681 8.468175 167.375306 -28.008469 -145.269175 -175.453221 -56.880659 -135.502337 145.119466 0.267753 179.212454 140.383384 -33.370922 173.408357 145.173549 12.06758 141.82295 155.260259 43.654158 146.645545 -180.0 75.749642 -0.0 -180.0 75.749642 -0.0 3.093813 0.300867 27.366401 -102.196121 11.479583 29.144837 -180.0 75.749642 -0.0 -180.0 75.749642 -0.0 2.74577 11.919568 137.880989 -102.092902 -27.500825 160.112613
2.41112 80.757 -24.7021 -0.0 -0.0 -0.0 -0.0 -0.0 -0.0 0.0 0.0 -0.0 -7.839959 7.474454 -64.637578 10.095103 3.902534 64.805654 0.0 0.0 0.0 0.0 0.0 0.0 -143.620413 38.233348 148.080496 -153.748773 -14.787283 171.174154 17.900104 -22.591006 2.566003 -24.635884 54.888562 10.844108 -178.927535 -16.453687 89.421826 25.520443 -67.988085 19.140816 -0.327682 0.529888 0.186114 -79.821871 48.035275 52.70367 -161.153703 -8.160616 143.465095 -13.502288 40.311439 13.601362 -145.118942 0.185529 -179.186624 22.261306 29.144513 -5.737486 -43.363118 -47.546704 -42.161842 -147.598438 12.728449 -145.602555 80.1661 68.371792 -83.260848 -16.926784 14.142456 0.162407 -177.674118 -60.28853 -174.327977 5.710246 17.950288 -0.282605 4.166296 4.057514 -0.783763 0.491481 1.385822 -3.114723 112.989778 31.442628 -95.609228 166.597738 -32.739733 -125.239444 160.503109 -6.142549 -143.164789 -169.025073 -65.294149 -131.280626 145.119466 0.267753 179.212454 139.161583 -38.295293 172.062009 126.797849 -26.619602 124.512652 -22.68098 61.042606 -9.746428 -180.0 75.749642 -0.0 -180.0 75.749642 -0.0 3.819913 0.604099 34.22701 157.779015 -53.280202 35.135222 -180.0 75.749642 -0.0 -180.0 75.749642 -0.0 2.029982 12.329736 145.110086 -118.648132 -15.421691 151.51158
2.60248 80.5533 -24.5404 -0.0 -0.0 -0.0 -0.0 -0.0 -0.0 0.0 0.0 -0.0 -7.839959 7.474454 -64.637578 10.095103 3.902534 64.805654 0.0 0.0 0.0 0.0 0.0 0.0 -143.620413 38.233348 148.080496 -155.393326 -26.092474 171.292274 4.281708 7.180975 0.711892 -4.555951 14.447823 0.080475 173.307618 -23.519135 87.872064 -1.241888 -61.537029 -1.346773 -14.228542 19.203392 9.559881 81.069298 -64.920591 40.699099 68.983989 -80.15399 40.578188 -142.643726 35.747752 128.057896 -0.000142 -0.018512 -0.005816 1.294469 -33.817336 -3.976583 0.369105 0.970785 0.340419 -157.060454 37.766855 -148.426159 80.1661 68.371792 -83.260848 -16.89865 15.899113 0.048397 -167.830103 -7.846078 -170.29619 37.396647 64.623788 -21.538406 6.581133 6.344846 -1.36571 -6.604742 -6.630028 0.732368 26.599783 30.073055 -19.414608 -59.209379 -63.9087 -21.0643 160.673322 -6.667841 -143.245105 152.859447 15.019217 -139.717389 -0.004871 1.772325 -0.55677 157.983295 -76.338503 170.392658 9.259135 -19.386593 8.754106 155.785189 37.636232 149.519309 -180.0 75.749642 -0.0 -180.0 75.749642 -0.0 2.512346 0.127625 22.075435 63.99217 -37.472777 -23.046809 -180.0 75.749642 -0.0 -180.0 75.749642 -0.0 5.634217 7.031168 86.353135 -10.937268 -58.836485 -110.224295
2.77765 80.3775 -24.3692 -0.0 -0.0 -0.0 -0.0 -0.0 -0.0 0.0 0.0 -0.0 12.086107 9.490159 98.819281 -7.514184 13.392728 -98.942746 0.0 0.0 0.0 0.0 0.0 0.0 -80.1661 68.371792 83.260848 16.926686 14.149077 -0.16198 -9.725066 -0.006893 -24.79515 119.230471 -67.757707 102.255457 -10.082806 9.553975 2.367178 -23.503866 18.040521 25.436678 -138.493513 4.896353 114.8648 -36.837922 58.93158 28.193334 68.983989 -80.15399 40.578188 -15.180121 34.314532 13.838257 -145.121957 1.974539 -179.748654 -143.413463 76.670838 168.31916 -85.782851 -50.535917 -84.155244 34.354724 84.032395 4.255226 80.1661 68.371792 -83.260848 -16.92521 14.247477 0.155641 -158.686635 43.413494 -174.687039 160.090395 54.004866 -135.011881 -71.831195 -48.263725 -25.791675 149.000957 -7.735657 -118.991391 -88.792192 -75.499035 -40.049684 3.298949 23.570156 -11.556635 -68.983989 -80.15399 -40.578188 161.524035 0.640784 -139.416879 145.10101 -1.438202 178.676247 139.257308 -38.439213 172.440232 156.381711 53.734251 150.117957 25.832885 -39.567031 28.670199 -180.0 75.749642 -0.0 -180.0 75.749642 -0.0 3.819913 0.604099 34.22701 157.779015 -53.280202 35.135222 -180.0 75.749642 -0.0 -180.0 75.749642 -0.0 2.029982 12.329736 145.110086 -118.648132 -15.421691 151.51158
2.91671 80.2415 -24.2025 -0.0 -0.0 -0.0 -0.0 -0.0 -0.0 0.0 0.0 -0.0 -7.839959 7.474454 -64.637578 10.095103 3.902534 64.805654 0.0 0.0 0.0 0.0 0.0 0.0 -143.620413 38.233348 148.080496 -153.748773 -14.787283 171.174154 9.745556 1.213937 0.184598 -10.797157 31.783059 1.959769 -1.927107 1.891776 0.327098 -90.532702 18.607525 83.211674 159.641557 -69.973343 102.396332 -137.389592 5.776828 107.702455 78.537123 -80.919176 49.688177 -85.963104 60.978135 77.546561 0.000474 0.063839 0.020056 -135.285881 71.612219 138.731977 -149.548271 27.153394 -145.54674 -24.384437 -40.169621 -28.015306 80.1661 68.371792 -83.260848 -16.926784 14.142456 0.162407 -177.674118 -60.28853 -174.327977 5.710246 17.950288 -0.282605 -83.25393 -50.258079 -33.616048 33.573168 8.396914 6.299798 -37.215945 -57.917763 0.643014 -8.156052 5.286409 -6.308589 -173.123457 -66.297779 -137.614274 -171.772849 -56.272822 -132.980957 -0.004871 1.772325 -0.55677 166.565307 -45.828747 -177.869891 1.178169 -2.985265 1.092498 -5.53625 17.321104 -4.578878 -180.0 75.749642 -0.0 -180.0 75.749642 -0.0 3.819913 0.604099 34.22701 157.779015 -53.280202 35.135222 -180.0 75.749642 -0.0 -180.0 75.749642 -0.0 2.029982 12.329736 145.110086 -118.648132 -15.421691 151.51158
